<?xml version="1.0" encoding="UTF-8"?>
<svg version="1.1" xmlns="http://www.w3.org/2000/svg" width="585" height="172">
<path d="M0 0 C6.27 0 12.54 0 19 0 C19.20625 2.289375 19.4125 4.57875 19.625 6.9375 C21.13084543 21.74643926 24.23535433 36.38612979 27 51 C28.94454274 45.68901569 30.05667525 40.31870506 31.1640625 34.7890625 C31.36099701 33.82092621 31.55793152 32.85278992 31.76083374 31.85531616 C32.38572391 28.77924188 33.00543306 25.7021504 33.625 22.625 C34.04913703 20.53248271 34.47361249 18.44003398 34.8984375 16.34765625 C35.93621221 11.23255838 36.96974122 6.11661668 38 1 C43.03733166 -0.5111995 47.88171027 0.35400227 53 1 C53.12306015 1.59690643 53.2461203 2.19381287 53.37290955 2.80880737 C54.65108971 9.00588596 55.93316325 15.20214979 57.2175293 21.39794922 C57.69672525 23.7121943 58.17491874 26.02664718 58.65209961 28.34130859 C59.33706163 31.66298321 60.02559265 34.98390059 60.71484375 38.3046875 C60.92842026 39.34430634 61.14199677 40.38392517 61.36204529 41.45504761 C61.56217728 42.41589264 61.76230927 43.37673767 61.96850586 44.36669922 C62.14393417 45.21497284 62.31936249 46.06324646 62.50010681 46.93722534 C62.92957368 49.04579309 62.92957368 49.04579309 64 51 C64.9880477 45.97046386 65.96617689 40.93912827 66.93579102 35.90600586 C67.26585943 34.19976897 67.59847185 32.4940219 67.93383789 30.78881836 C69.89070795 20.82896404 71.46801254 11.15271837 72 1 C78.27 1 84.54 1 91 1 C90.40598389 2.67827881 89.81196777 4.35655762 89.19995117 6.08569336 C86.84296963 13.16855601 85.28301097 20.32047027 83.80078125 27.62890625 C83.51811357 28.99476534 83.23474922 30.36048041 82.95072937 31.72605896 C82.21334618 35.27942478 81.48424033 38.83443371 80.75732422 42.38995361 C79.58598192 48.11085496 78.40087429 53.82892649 77.21748924 59.54734612 C76.80703056 61.53612672 76.39959226 63.5255063 75.99275208 65.51502991 C75.7454686 66.71735764 75.49818512 67.91968536 75.2434082 69.15844727 C74.91842094 70.74629784 74.91842094 70.74629784 74.58686829 72.3662262 C74 75 74 75 73 78 C67.39 78 61.78 78 56 78 C52.76754473 66.68640657 50.3284952 55.26103683 48.01904297 43.72973633 C47.7717041 42.50279053 47.52436523 41.27584473 47.26953125 40.01171875 C47.04885986 38.90272217 46.82818848 37.79372559 46.60083008 36.65112305 C46.12024222 34.04176754 46.12024222 34.04176754 45 32 C44.69763428 33.55726807 44.69763428 33.55726807 44.38916016 35.14599609 C43.63276754 39.04123291 42.8760064 42.93639806 42.11914062 46.83154297 C41.79319557 48.50925817 41.46734708 50.18699214 41.14160156 51.86474609 C40.36882408 55.84478718 39.59478665 59.82457072 38.81738281 63.80371094 C38.32557306 66.32143273 37.8405941 68.83999343 37.36230469 71.36035156 C36.10812114 77.89187886 36.10812114 77.89187886 35 79 C32.14122091 79.23701239 29.30116703 79.42219182 26.4375 79.5625 C25.63119141 79.60568359 24.82488281 79.64886719 23.99414062 79.69335938 C21.99631195 79.79975262 19.9981793 79.90040888 18 80 C17.81874069 79.15332764 17.63748138 78.30665527 17.45072937 77.43432617 C15.73597249 69.42991363 14.01532727 61.42679416 12.28816509 53.42504883 C11.40055981 49.31188124 10.51518638 45.1982603 9.63500977 41.08349609 C8.78446993 37.10769157 7.927942 33.13321929 7.06736183 29.15957642 C6.74114104 27.64829835 6.41702912 26.13656339 6.09512901 24.62435913 C4.51318415 17.19915009 2.82197631 10.06330577 0 3 C0 2.01 0 1.02 0 0 Z " fill="#FDFDFD" transform="translate(146,19)"/>
<path d="M0 0 C-0.32145996 1.1149585 -0.64291992 2.22991699 -0.97412109 3.37866211 C-2.67808582 11.10170618 -2.36022437 19.07111052 -2.4140625 26.94140625 C-2.43279772 28.67733151 -2.45237284 30.41324788 -2.4727478 32.14915466 C-2.52382659 36.69132219 -2.56358127 41.23351916 -2.60089111 45.77581787 C-2.64108378 50.42158141 -2.69210609 55.06722503 -2.7421875 59.71289062 C-2.83865917 68.80850921 -2.92315494 77.90419589 -3 87 C-6.68279971 87.64039056 -10.1345371 88.11917368 -13.875 88.0625 C-15.04675781 88.04896484 -15.04675781 88.04896484 -16.2421875 88.03515625 C-16.82226562 88.02355469 -17.40234375 88.01195313 -18 88 C-23.68107475 75.16849029 -29.32710989 62.32164655 -34.88024902 49.4342041 C-35.41829937 48.18667259 -35.95760601 46.93968215 -36.49816895 45.6932373 C-37.25625092 43.94416795 -38.00910802 42.1928368 -38.76171875 40.44140625 C-39.19444092 39.43795166 -39.62716309 38.43449707 -40.07299805 37.40063477 C-41 35 -41 35 -41 33 C-41.66 33 -42.32 33 -43 33 C-42.67 33.66 -42.34 34.32 -42 35 C-41.89145409 36.6018617 -41.84370097 38.20803446 -41.82641602 39.81347656 C-41.81292618 40.8150177 -41.79943634 41.81655884 -41.78553772 42.84844971 C-41.77509933 43.93486755 -41.76466095 45.0212854 -41.75390625 46.140625 C-41.72096061 48.4309933 -41.68774909 50.72135779 -41.65429688 53.01171875 C-41.60692239 56.6303437 -41.56251137 60.24895399 -41.52319336 63.86767578 C-41.48341154 67.35465952 -41.43187216 70.84132007 -41.37890625 74.328125 C-41.3704921 75.40644592 -41.36207794 76.48476685 -41.35340881 77.59576416 C-41.26845495 82.77278331 -41.08036656 87.16193822 -39 92 C-41.56149628 92.50567729 -44.12399465 93.00470132 -46.6875 93.5 C-47.40873047 93.64308594 -48.12996094 93.78617187 -48.87304688 93.93359375 C-52.63841359 94.65571887 -56.14473813 95.1824976 -60 95 C-59.83766876 94.3460022 -59.67533752 93.69200439 -59.50808716 93.01818848 C-58.8716243 89.23741026 -58.86054714 85.530025 -58.87060547 81.70898438 C-58.86885315 80.88723221 -58.86710083 80.06548004 -58.86529541 79.21882629 C-58.86090477 76.51044586 -58.86380508 73.80213107 -58.8671875 71.09375 C-58.86651366 69.20715319 -58.86554296 67.32055647 -58.86428833 65.43395996 C-58.86281513 61.48314587 -58.86495379 57.53235442 -58.86962891 53.58154297 C-58.87532596 48.52083281 -58.87204494 43.46017568 -58.86605644 38.39946747 C-58.86244065 34.50469565 -58.86359411 30.60993638 -58.86618423 26.71516418 C-58.86685068 24.84926853 -58.86603494 22.98337173 -58.86370468 21.11747742 C-58.86116148 18.50862618 -58.86504232 15.8998605 -58.87060547 13.29101562 C-58.86858124 12.52203445 -58.86655701 11.75305328 -58.86447144 10.96076965 C-58.87973931 7.09022622 -59.23264204 3.83678981 -60 0 C-53.4 0 -46.8 0 -40 0 C-35.4165223 9.83581927 -31.01717443 19.73819583 -26.6875 29.6875 C-25.73994357 31.86232632 -24.79198976 34.03697798 -23.84346008 36.21138 C-23.2596469 37.54996137 -22.67643869 38.88880679 -22.09391785 40.22795105 C-20.60636973 43.64146819 -20.60636973 43.64146819 -19 47 C-18.97527722 40.94938454 -18.95712914 34.89879851 -18.94506836 28.84814453 C-18.94004027 26.78987109 -18.93321694 24.73160122 -18.92456055 22.67333984 C-18.91242834 19.71450926 -18.90675643 16.75572592 -18.90234375 13.796875 C-18.89718246 12.87694763 -18.89202118 11.95702026 -18.88670349 11.00921631 C-18.88662796 10.1486261 -18.88655243 9.28803589 -18.88647461 8.40136719 C-18.884254 7.64635925 -18.88203339 6.89135132 -18.87974548 6.11346436 C-19.00224025 3.9606277 -19.40871581 2.06919263 -20 0 C-17.04196565 -0.19421438 -14.08379837 -0.38066186 -11.125 -0.5625 C-10.28324219 -0.61857422 -9.44148438 -0.67464844 -8.57421875 -0.73242188 C-7.76855469 -0.78076172 -6.96289062 -0.82910156 -6.1328125 -0.87890625 C-5.38918457 -0.9260376 -4.64555664 -0.97316895 -3.87939453 -1.02172852 C-2 -1 -2 -1 0 0 Z " fill="#FDFDFD" transform="translate(81,20)"/>
<path d="M0 0 C1.09989706 2.64689906 2.09260659 5.27079959 3.0390625 7.97265625 C3.32478119 8.77029892 3.61049988 9.56794159 3.90487671 10.38975525 C4.8183975 12.94496625 5.72178488 15.50363021 6.625 18.0625 C7.24152481 19.79255401 7.85870393 21.522375 8.4765625 23.25195312 C9.99198847 27.49863262 11.4983342 31.74843631 13 36 C15.23139065 32.65291402 16.4791481 29.24511097 17.8203125 25.48828125 C18.08383514 24.76005661 18.34735779 24.03183197 18.61886597 23.28153992 C19.45802831 20.95987196 20.29157808 18.63623402 21.125 16.3125 C21.6936414 14.73619496 22.26264755 13.16002144 22.83203125 11.58398438 C24.22558799 7.72416857 25.61411518 3.86257674 27 0 C31.75643009 -0.87525386 36.07206142 -0.96739889 40.875 -0.5625 C41.90753906 -0.48418945 41.90753906 -0.48418945 42.9609375 -0.40429688 C44.64112758 -0.27594902 46.32064749 -0.13887775 48 0 C47.83799606 0.68429077 47.67599213 1.36858154 47.50907898 2.0736084 C46.93488636 5.37429948 46.86538432 8.47128591 46.85473633 11.82226562 C46.85137772 12.48796066 46.8480191 13.1536557 46.84455872 13.83952332 C46.83510065 16.02845146 46.83310844 18.21730273 46.83203125 20.40625 C46.82881591 21.93412304 46.82545163 23.46199577 46.82194519 24.98986816 C46.81596739 28.18742588 46.81410398 31.38495662 46.81469727 34.58251953 C46.814799 38.67473619 46.80112929 42.76677977 46.78392506 46.85895538 C46.77279606 50.01256095 46.77077831 53.16612473 46.77130699 56.31974792 C46.77012891 57.82839049 46.76571677 59.33703419 46.75797462 60.84565735 C46.74815317 62.95647266 46.7510607 65.06691274 46.75708008 67.17773438 C46.75565506 68.37732788 46.75423004 69.57692139 46.75276184 70.81286621 C46.99663231 73.95658724 47.65531467 76.16866245 49 79 C42.2314676 79.10152799 35.69675136 79.03026944 29 78 C29.16298584 77.21608887 29.32597168 76.43217773 29.49389648 75.62451172 C30.13144361 71.05865325 30.12377753 66.61132502 30.09765625 62.0078125 C30.0962413 61.06187225 30.09482635 60.11593201 30.09336853 59.1413269 C30.08779484 56.13585171 30.0752472 53.13045247 30.0625 50.125 C30.0574816 48.08073025 30.05291929 46.03645932 30.04882812 43.9921875 C30.0386872 38.99473924 30.01910666 33.99745411 30 29 C25.71 40.88 21.42 52.76 17 65 C14.69 65 12.38 65 10 65 C8.14234222 60.07272236 6.29110552 55.14309893 4.44580078 50.21118164 C3.8170316 48.5334359 3.18650698 46.85634697 2.55419922 45.17993164 C1.64609833 42.77139719 0.74431853 40.36057805 -0.15625 37.94921875 C-0.44060913 37.19912033 -0.72496826 36.44902191 -1.01794434 35.67619324 C-2.14221978 32.65027662 -3 30.25571279 -3 27 C-3.66 27 -4.32 27 -5 27 C-4.67 27.66 -4.34 28.32 -4 29 C-3.88783619 30.36183908 -3.83354164 31.72871391 -3.81054688 33.0949707 C-3.79382935 33.93957352 -3.77711182 34.78417633 -3.7598877 35.65437317 C-3.74631226 36.56893784 -3.73273682 37.4835025 -3.71875 38.42578125 C-3.69113586 39.83539375 -3.69113586 39.83539375 -3.66296387 41.27348328 C-3.60410864 44.28642408 -3.55136609 47.29942277 -3.5 50.3125 C-3.43222773 54.26704376 -3.35847973 58.22141223 -3.28125 62.17578125 C-3.26767456 63.08427322 -3.25409912 63.9927652 -3.2401123 64.92878723 C-3.22339478 65.78284653 -3.20667725 66.63690582 -3.18945312 67.5168457 C-3.17692505 68.26360062 -3.16439697 69.01035553 -3.15148926 69.77973938 C-3.01489003 72.48416422 -3.01489003 72.48416422 -2 77 C-8.27 76.67 -14.54 76.34 -21 76 C-20.67 74.02 -20.34 72.04 -20 70 C-19.90749218 67.84779711 -19.86216378 65.6932398 -19.85473633 63.5390625 C-19.84835648 62.27755371 -19.84197662 61.01604492 -19.83540344 59.71630859 C-19.8338748 58.35253946 -19.83276082 56.9887698 -19.83203125 55.625 C-19.8288141 54.21305305 -19.82544968 52.80110642 -19.82194519 51.38916016 C-19.81597464 48.43716662 -19.81410325 45.48520227 -19.81469727 42.53320312 C-19.814799 38.76059357 -19.80112623 34.98817174 -19.78392506 31.21560669 C-19.77278115 28.30215604 -19.77077876 25.38875054 -19.77130699 22.47528076 C-19.77013128 21.08468985 -19.76573253 19.6940976 -19.75797462 18.30352783 C-19.74812286 16.35602262 -19.75233036 14.40846184 -19.75708008 12.4609375 C-19.75494255 10.80263916 -19.75494255 10.80263916 -19.75276184 9.11083984 C-20.01598985 5.79880998 -20.82525903 3.09687064 -22 0 C-18.70880065 -0.1964031 -15.41703066 -0.38060745 -12.125 -0.5625 C-11.18785156 -0.61857422 -10.25070312 -0.67464844 -9.28515625 -0.73242188 C-8.38925781 -0.78076172 -7.49335938 -0.82910156 -6.5703125 -0.87890625 C-5.74289551 -0.9260376 -4.91547852 -0.97316895 -4.06298828 -1.02172852 C-2 -1 -2 -1 0 0 Z " fill="#FDFDFD" transform="translate(380,20)"/>
<path d="M0 0 C5.30188966 -0.07438973 10.60347268 -0.12871511 15.90576172 -0.16479492 C17.70789892 -0.1798424 19.50999973 -0.2002853 21.31201172 -0.22631836 C23.90862021 -0.26288021 26.50474275 -0.27976681 29.1015625 -0.29296875 C30.30191635 -0.31619453 30.30191635 -0.31619453 31.52651978 -0.33988953 C37.48374539 -0.34166488 41.36270464 1.09528668 46.25 4.625 C50.95380247 11.00873192 50.52385968 19.82899804 49.7578125 27.390625 C49.06416124 31.66578178 48.25375678 34.23358808 44.875 37.0625 C43.92625 37.701875 42.9775 38.34125 42 39 C42.763125 39.53625 43.52625 40.0725 44.3125 40.625 C47.98607343 43.87141373 49.75143774 46.68745667 50.28540039 51.65527344 C50.40357019 54.79659923 50.4090222 57.91922693 50.375 61.0625 C50.38660156 62.13822266 50.39820313 63.21394531 50.41015625 64.32226562 C50.40628906 65.36189453 50.40242188 66.40152344 50.3984375 67.47265625 C50.39505371 68.41375244 50.39166992 69.35484863 50.38818359 70.32446289 C49.73254037 74.84345287 47.7327678 77.37677514 44.30859375 80.2890625 C40.41518054 82.3024214 37.33430384 82.52842056 33.0625 82.375 C32.30340332 82.36210938 31.54430664 82.34921875 30.76220703 82.3359375 C20.48148878 82.07238214 10.22738279 81.02848246 0 80 C0.16233124 79.15083008 0.32466248 78.30166016 0.49191284 77.42675781 C1.00724302 73.95114994 1.12701972 70.68394979 1.12939453 67.171875 C1.13114685 66.5173938 1.13289917 65.8629126 1.13470459 65.18859863 C1.13907707 63.04237147 1.13620143 60.89622788 1.1328125 58.75 C1.13348686 57.24837224 1.13445799 55.74674458 1.13571167 54.24511719 C1.13718241 51.10480709 1.13505417 47.96452552 1.13037109 44.82421875 C1.12467419 40.80952686 1.12795653 36.79490184 1.13394356 32.7802124 C1.13756602 29.68147279 1.13640284 26.58274889 1.13381577 23.48400879 C1.13315116 22.00410962 1.13395854 20.524209 1.13629532 19.04431152 C1.13884957 16.97221118 1.13494239 14.90021745 1.12939453 12.828125 C1.12859894 11.6515332 1.12780334 10.47494141 1.12698364 9.26269531 C1.00358887 6.09221177 0.59515708 3.11332249 0 0 Z M17 12 C16.91314397 13.56172745 16.89297781 15.12729344 16.90234375 16.69140625 C16.90556641 17.63564453 16.90878906 18.57988281 16.91210938 19.55273438 C16.92048828 20.54595703 16.92886719 21.53917969 16.9375 22.5625 C16.94201172 23.55958984 16.94652344 24.55667969 16.95117188 25.58398438 C16.96299993 28.05604849 16.97948151 30.52799518 17 33 C19.27024968 33.08097324 21.54132075 33.13917704 23.8125 33.1875 C25.70935547 33.23970703 25.70935547 33.23970703 27.64453125 33.29296875 C30.87660982 33.24223334 30.87660982 33.24223334 32.92578125 31.921875 C34.57323831 28.97442455 34.39607373 26.40971056 34.375 23.0625 C34.38273437 21.83660156 34.39046875 20.61070313 34.3984375 19.34765625 C33.98198216 15.84861478 33.46639415 14.45445035 31 12 C27.74886858 10.88532637 19.56854703 9.43145297 17 12 Z M17 45 C16.91273777 46.78071246 16.89300959 48.5648314 16.90234375 50.34765625 C16.90556641 51.42724609 16.90878906 52.50683594 16.91210938 53.61914062 C16.92048828 54.75544922 16.92886719 55.89175781 16.9375 57.0625 C16.94201172 58.20267578 16.94652344 59.34285156 16.95117188 60.51757812 C16.96300253 63.34510351 16.9794859 66.1725264 17 69 C19.24691477 69.2763585 21.49784842 69.52018861 23.75 69.75 C25.62945312 69.95882812 25.62945312 69.95882812 27.546875 70.171875 C30.9760299 70.27306866 30.9760299 70.27306866 33.421875 68.546875 C35.70033124 64.86976246 35.58647731 61.74459461 35.5 57.5 C35.51546875 56.74074219 35.5309375 55.98148438 35.546875 55.19921875 C35.5218156 51.62198936 35.36726992 49.56468862 33.38671875 46.51953125 C30.28400339 44.54415273 27.97098448 44.36366443 24.3125 44.1875 C22.57419922 44.08501953 22.57419922 44.08501953 20.80078125 43.98046875 C18.09438673 43.67156037 18.09438673 43.67156037 17 45 Z " fill="#FDFDFD" transform="translate(439,20)"/>
<path d="M0 0 C1.12100098 0.00845947 1.12100098 0.00845947 2.26464844 0.01708984 C8.45516779 0.15318964 14.40806847 0.45474044 19.234375 4.7421875 C22.80756549 8.77708238 23.72963256 12.18413315 23.94140625 17.41796875 C23.98330078 18.40087891 24.02519531 19.38378906 24.06835938 20.39648438 C24.10767578 21.42064453 24.14699219 22.44480469 24.1875 23.5 C24.23068359 24.53576172 24.27386719 25.57152344 24.31835938 26.63867188 C24.42444366 29.1964819 24.52650146 31.75438845 24.625 34.3125 C23.02301072 33.83868014 21.42154914 33.3630759 19.8203125 32.88671875 C18.92844238 32.62205811 18.03657227 32.35739746 17.11767578 32.0847168 C14.557172 31.29148727 12.08477377 30.37840197 9.625 29.3125 C9.56441406 28.63703125 9.50382813 27.9615625 9.44140625 27.265625 C9.35761719 26.37359375 9.27382813 25.4815625 9.1875 24.5625 C9.10628906 23.68078125 9.02507813 22.7990625 8.94140625 21.890625 C8.66261535 19.61899548 8.23709423 17.51398177 7.625 15.3125 C6.23305394 15.06079734 4.8360173 14.8371731 3.4375 14.625 C2.27154297 14.43357422 2.27154297 14.43357422 1.08203125 14.23828125 C-2.2894874 14.34012363 -3.82486646 15.10769704 -6.375 17.3125 C-7.53772741 22.06374654 -7.29901829 26.52641724 -6.375 31.3125 C-4.31907196 34.4117348 -1.64871333 35.65901344 1.625 37.3125 C3.40222448 38.32805684 5.17920369 39.34408442 6.95068359 40.36962891 C8.16447246 41.06581465 9.38466511 41.75098748 10.61181641 42.42333984 C15.70697919 45.22703485 20.34675144 47.83997659 22.875 53.25 C23.18953125 53.89839844 23.5040625 54.54679687 23.828125 55.21484375 C27.41641078 64.66047838 26.94740502 78.81991423 23.625 88.3125 C21.41150529 90.96869365 19.70560516 92.77219742 16.625 94.3125 C5.32714428 95.22616796 -8.44105345 94.55044295 -17.92578125 87.69921875 C-21.93706391 83.86092941 -23.24129343 78.71556133 -23.45336914 73.31787109 C-23.47318866 71.04439694 -23.46227318 68.77341538 -23.4375 66.5 C-23.43073242 65.31760742 -23.43073242 65.31760742 -23.42382812 64.11132812 C-23.41211312 62.17835239 -23.39417998 60.24541607 -23.375 58.3125 C-21.64482492 58.76701184 -19.91590123 59.22628857 -18.1875 59.6875 C-16.74310547 60.07035156 -16.74310547 60.07035156 -15.26953125 60.4609375 C-12.55289793 61.26016296 -9.98362825 62.2156362 -7.375 63.3125 C-7.41625 64.50875 -7.4575 65.705 -7.5 66.9375 C-7.4796301 70.76704098 -7.115967 73.830566 -5.375 77.3125 C-1.56015915 79.71039996 2.20866069 79.64580863 6.625 79.3125 C9.44618709 76.49131291 8.9928075 73.77246768 9 70 C9.02835938 68.68386719 9.05671875 67.36773437 9.0859375 66.01171875 C8.53424295 61.58413622 7.89477366 60.32128269 4.625 57.3125 C0.57096157 54.62875475 -3.68420602 52.30586609 -7.93359375 49.94921875 C-14.75875112 46.03314485 -19.81186372 42.32169681 -22.73046875 34.8359375 C-24.36902487 25.8784974 -24.82141234 15.54461281 -20.375 7.3125 C-15.14902673 0.48970156 -8.05022548 -0.06337334 0 0 Z " fill="#FDFDFD" transform="translate(542.375,18.6875)"/>
<path d="M0 0 C4.00487483 2.87529475 5.11497092 6.29904411 6 11 C6.29196061 14.78101211 6.30412776 18.54884256 6.30078125 22.33984375 C6.30506638 23.42076797 6.3093515 24.5016922 6.31376648 25.6153717 C6.31949136 27.89388328 6.32002368 30.17241312 6.31567383 32.45092773 C6.31251349 35.92268249 6.33599839 39.39358476 6.36132812 42.86523438 C6.36360137 45.08593643 6.3643045 47.30664077 6.36328125 49.52734375 C6.372491 50.55778305 6.38170074 51.58822235 6.39118958 52.64988708 C6.34989757 59.13219727 6.05840748 65.5261565 1.5526886 70.64390564 C-3.49147602 75.0494015 -10.59495803 74.33351754 -16.875 74.3125 C-18.30779297 74.33666992 -18.30779297 74.33666992 -19.76953125 74.36132812 C-25.88497083 74.36552253 -30.45357667 73.62593376 -36 71 C-40.09925066 66.79564035 -41.11730141 63.47870566 -41.17700195 57.72167969 C-41.18983719 56.64335876 -41.20267242 55.56503784 -41.21589661 54.45404053 C-41.22328354 53.2884259 -41.23067047 52.12281128 -41.23828125 50.921875 C-41.246353 49.72193909 -41.25442474 48.52200317 -41.26274109 47.28570557 C-41.27658075 44.74370773 -41.28730343 42.20169132 -41.29516602 39.65966797 C-41.31237026 35.77926247 -41.35625845 31.89971073 -41.40039062 28.01953125 C-41.41051836 25.54948543 -41.41903421 23.07943237 -41.42578125 20.609375 C-41.45204338 18.87309845 -41.45204338 18.87309845 -41.47883606 17.10174561 C-41.46118482 10.51968474 -41.04527207 6.29619397 -37 1 C-27.3156423 -5.05272356 -10.04063457 -5.5861564 0 0 Z M-25 10 C-26.96861822 15.42234207 -27.29458611 20.30714051 -27.265625 26.0390625 C-27.26753845 26.88294525 -27.2694519 27.726828 -27.27142334 28.59628296 C-27.2727772 30.36953024 -27.26913693 32.1427877 -27.26074219 33.91601562 C-27.25000427 36.62392436 -27.26067833 39.3311738 -27.2734375 42.0390625 C-27.27211629 43.76823062 -27.26955468 45.49739834 -27.265625 47.2265625 C-27.26967346 48.03187408 -27.27372192 48.83718567 -27.27789307 49.66690063 C-27.24295266 53.86706067 -27.03045174 57.20769888 -25 61 C-21.64069599 63.61279201 -18.1076673 63.50445037 -14 63 C-11.12260982 60.9745789 -9.2879368 59.37399553 -8.54638672 55.8354187 C-8.37049436 53.14684952 -8.35955884 50.50255584 -8.40625 47.80859375 C-8.40620972 46.82633316 -8.40616943 45.84407257 -8.40612793 44.83204651 C-8.41147896 42.76011744 -8.42904377 40.6881886 -8.45800781 38.61645508 C-8.49990298 35.44484493 -8.49907158 32.27535614 -8.4921875 29.10351562 C-8.50267895 27.08852691 -8.51561681 25.07354913 -8.53125 23.05859375 C-8.53155212 21.63660927 -8.53155212 21.63660927 -8.53186035 20.18589783 C-8.54777222 19.30140457 -8.56368408 18.41691132 -8.58007812 17.50561523 C-8.58849731 16.73015854 -8.5969165 15.95470184 -8.60559082 15.15574646 C-9.10385679 12.43234356 -10.14806363 11.0301249 -12 9 C-14.12014169 8.23327268 -14.12014169 8.23327268 -16.4375 8.125 C-17.19933594 8.04507812 -17.96117187 7.96515625 -18.74609375 7.8828125 C-21.51337463 8.02669192 -22.80306533 8.27417022 -25 10 Z " fill="#FDFDFD" transform="translate(342,22)"/>
<path d="M0 0 C6.39037231 -0.02527062 12.78073183 -0.04283317 19.17114258 -0.05493164 C21.34692873 -0.05997308 23.52271147 -0.06680607 25.69848633 -0.07543945 C28.81853067 -0.08751338 31.93853038 -0.09323005 35.05859375 -0.09765625 C36.52733192 -0.10539818 36.52733192 -0.10539818 38.02574158 -0.11329651 C39.37702904 -0.11340981 39.37702904 -0.11340981 40.75561523 -0.11352539 C41.95141457 -0.11685631 41.95141457 -0.11685631 43.17137146 -0.12025452 C45 0 45 0 46 1 C46.07271741 3.35313555 46.08370868 5.70833668 46.0625 8.0625 C46.05347656 9.35285156 46.04445312 10.64320312 46.03515625 11.97265625 C46.02355469 12.97167969 46.01195312 13.97070312 46 15 C45.28884033 14.84152588 44.57768066 14.68305176 43.8449707 14.51977539 C41.02108366 14.00385198 38.34701008 13.79569313 35.48046875 13.68359375 C34.45888672 13.64169922 33.43730469 13.59980469 32.38476562 13.55664062 C30.80211914 13.49766602 30.80211914 13.49766602 29.1875 13.4375 C28.11306641 13.39431641 27.03863281 13.35113281 25.93164062 13.30664062 C23.28789949 13.20089098 20.64396588 13.09997297 18 13 C18 20.26 18 27.52 18 35 C20.330625 34.855625 22.66125 34.71125 25.0625 34.5625 C26.37347656 34.48128906 27.68445313 34.40007813 29.03515625 34.31640625 C32.70468439 34.02356706 36.35580356 33.52059949 40 33 C40 37.95 40 42.9 40 48 C38.68 47.67 37.36 47.34 36 47 C34.55901569 46.92233916 33.11491371 46.89203633 31.671875 46.90234375 C30.9509668 46.90484131 30.23005859 46.90733887 29.48730469 46.90991211 C28.13233887 46.92356812 28.13233887 46.92356812 26.75 46.9375 C23.8625 46.958125 20.975 46.97875 18 47 C18 54.92 18 62.84 18 71 C21.50625 70.71125 25.0125 70.4225 28.625 70.125 C29.71893066 70.03879395 30.81286133 69.95258789 31.93994141 69.86376953 C33.25744385 69.7494458 33.25744385 69.7494458 34.6015625 69.6328125 C35.93695068 69.52283936 35.93695068 69.52283936 37.29931641 69.41064453 C40.610191 68.98551886 40.610191 68.98551886 46 67 C46 71.95 46 76.9 46 82 C23.23 83.98 23.23 83.98 0 86 C0.66 83.03 1.32 80.06 2 77 C2.16700011 74.63061314 2.25553336 72.25416887 2.25878906 69.87890625 C2.2622937 69.22880585 2.26579834 68.57870544 2.26940918 67.90890503 C2.2780992 65.79332294 2.27242319 63.67808456 2.265625 61.5625 C2.26697532 60.07234636 2.26891889 58.58219316 2.27142334 57.09204102 C2.27435737 53.98221608 2.27013277 50.87250672 2.26074219 47.76269531 C2.24934865 43.79875994 2.2559174 39.83509551 2.26788712 35.87117004 C2.27515246 32.79803466 2.27279645 29.72496235 2.26763153 26.65182495 C2.26630793 25.1911516 2.26789695 23.73047232 2.27259064 22.26980591 C2.29184038 14.59771702 2.06873342 7.43675767 0 0 Z " fill="#FDFDFD" transform="translate(92,19)"/>
<path d="M0 0 C0.82113281 -0.020625 1.64226562 -0.04125 2.48828125 -0.0625 C8.26281343 -0.09910559 12.49251074 0.82123705 17.75 3.25 C21.66160568 7.16160568 22.68364838 10.05243429 22.84765625 15.484375 C22.83605469 16.64453125 22.82445312 17.8046875 22.8125 19 C22.80347656 20.17046875 22.79445313 21.3409375 22.78515625 22.546875 C22.77355469 23.43890625 22.76195312 24.3309375 22.75 25.25 C21.1676994 25.58820166 19.58410625 25.92035939 18 26.25 C17.11828125 26.435625 16.2365625 26.62125 15.328125 26.8125 C12.75 27.25 12.75 27.25 8.75 27.25 C8.60304688 25.87714844 8.60304688 25.87714844 8.453125 24.4765625 C8.30359375 23.28804687 8.1540625 22.09953125 8 20.875 C7.86078125 19.69164063 7.7215625 18.50828125 7.578125 17.2890625 C7.0685049 14.1842308 7.0685049 14.1842308 4.859375 12.84765625 C0.73368128 11.6787097 -3.18431261 11.99901927 -7.25 13.25 C-8.43388589 17.93181109 -8.41154189 22.4820018 -8.41796875 27.27734375 C-8.42129715 28.14388077 -8.42462555 29.01041779 -8.42805481 29.9032135 C-8.43310494 31.73128735 -8.43546373 33.55937036 -8.43530273 35.38745117 C-8.43748978 38.17447162 -8.45566726 40.96109634 -8.47460938 43.74804688 C-8.47754364 45.52864449 -8.47952821 47.30924397 -8.48046875 49.08984375 C-8.48765427 49.91814194 -8.49483978 50.74644012 -8.50224304 51.59983826 C-8.48426599 56.18222067 -8.15141783 59.98696187 -6.25 64.25 C-3.12293041 65.8135348 0.32982443 65.64958487 3.75 65.25 C6.87474627 63.61526484 6.87474627 63.61526484 7.4375 61.125 C7.83477078 57.47010878 7.81231163 53.92638613 7.75 50.25 C9.4991497 49.91223316 11.24936145 49.57996329 13 49.25 C13.97453125 49.064375 14.9490625 48.87875 15.953125 48.6875 C18.75 48.25 18.75 48.25 22.75 48.25 C22.83138426 51.12557703 22.89067851 53.99882262 22.9375 56.875 C22.96263672 57.68324219 22.98777344 58.49148437 23.01367188 59.32421875 C23.08555398 65.21855158 22.05239579 69.18013895 18.4375 74 C12.95755875 78.05921574 6.3016029 77.58411593 -0.1875 77.5625 C-1.63286133 77.58666992 -1.63286133 77.58666992 -3.10742188 77.61132812 C-8.94004744 77.61531488 -13.11986897 77.08953091 -18.25 74.25 C-22.30010556 69.98673099 -23.36706236 66.75175766 -23.42700195 60.97167969 C-23.43983719 59.89335876 -23.45267242 58.81503784 -23.46589661 57.70404053 C-23.47328354 56.5384259 -23.48067047 55.37281128 -23.48828125 54.171875 C-23.496353 52.97193909 -23.50442474 51.77200317 -23.51274109 50.53570557 C-23.52658075 47.99370773 -23.53730343 45.45169132 -23.54516602 42.90966797 C-23.56237026 39.02926247 -23.60625845 35.14971073 -23.65039062 31.26953125 C-23.66051836 28.79948543 -23.66903421 26.32943237 -23.67578125 23.859375 C-23.70204338 22.12309845 -23.70204338 22.12309845 -23.72883606 20.35174561 C-23.71118482 13.76968474 -23.29527207 9.54619397 -19.25 4.25 C-12.94715461 0.31072163 -7.21861665 0.0444907 0 0 Z " fill="#FDFDFD" transform="translate(267.25,18.75)"/>
<path d="M0 0 C3.3825 -0.04125 6.765 -0.0825 10.25 -0.125 C11.30993164 -0.14320801 12.36986328 -0.16141602 13.46191406 -0.18017578 C14.30463867 -0.1851709 15.14736328 -0.19016602 16.015625 -0.1953125 C16.87446289 -0.20578613 17.73330078 -0.21625977 18.61816406 -0.22705078 C21.21730884 0.02071517 22.80451408 0.60470931 25 2 C26.47694068 4.95388136 26.20930797 7.65161882 26.25 10.9375 C26.27578125 12.18402344 26.3015625 13.43054688 26.328125 14.71484375 C26 18 26 18 24.609375 19.94140625 C23 21 23 21 21 21 C21.433125 21.83144531 21.86625 22.66289062 22.3125 23.51953125 C22.869375 24.60621094 23.42625 25.69289062 24 26.8125 C24.556875 27.89144531 25.11375 28.97039062 25.6875 30.08203125 C27 33 27 33 27 36 C24.69 36 22.38 36 20 36 C18.99515796 34.04414675 17.99626195 32.08523763 17 30.125 C16.443125 29.03445312 15.88625 27.94390625 15.3125 26.8203125 C14 24 14 24 14 22 C11.69 22 9.38 22 7 22 C7 26.29 7 30.58 7 35 C4.69 35 2.38 35 0 35 C0 23.45 0 11.9 0 0 Z M7 6 C7 9.3 7 12.6 7 16 C8.81242052 16.02687279 10.62495233 16.04633715 12.4375 16.0625 C13.95150391 16.07990234 13.95150391 16.07990234 15.49609375 16.09765625 C17.94021067 16.28612676 17.94021067 16.28612676 19 15 C19.16053815 13.12678052 19.16053815 13.12678052 19.125 11 C19.12757813 10.278125 19.13015625 9.55625 19.1328125 8.8125 C19.19695276 6.97910585 19.19695276 6.97910585 18 6 C16.14712498 5.92773498 14.29166122 5.9161878 12.4375 5.9375 C11.42558594 5.94652344 10.41367187 5.95554687 9.37109375 5.96484375 C8.58863281 5.97644531 7.80617188 5.98804687 7 6 Z " fill="#FDFDFD" transform="translate(440,119)"/>
<path d="M0 0 C3.3825 -0.04125 6.765 -0.0825 10.25 -0.125 C11.30993164 -0.14320801 12.36986328 -0.16141602 13.46191406 -0.18017578 C14.30463867 -0.1851709 15.14736328 -0.19016602 16.015625 -0.1953125 C16.87446289 -0.20578613 17.73330078 -0.21625977 18.61816406 -0.22705078 C21.21730884 0.02071517 22.80451408 0.60470931 25 2 C26.47694068 4.95388136 26.20930797 7.65161882 26.25 10.9375 C26.27578125 12.18402344 26.3015625 13.43054688 26.328125 14.71484375 C26 18 26 18 24.609375 19.94140625 C23 21 23 21 21 21 C21.433125 21.84304687 21.86625 22.68609375 22.3125 23.5546875 C22.869375 24.65039062 23.42625 25.74609375 24 26.875 C24.556875 27.96554688 25.11375 29.05609375 25.6875 30.1796875 C27 33 27 33 27 35 C24.36 35 21.72 35 19 35 C18.63648438 34.14535156 18.27296875 33.29070312 17.8984375 32.41015625 C17.39570313 31.30542969 16.89296875 30.20070312 16.375 29.0625 C15.88773437 27.96035156 15.40046875 26.85820312 14.8984375 25.72265625 C14.27195312 24.82417969 13.64546875 23.92570312 13 23 C11.02 22.67 9.04 22.34 7 22 C7 26.29 7 30.58 7 35 C4.69 35 2.38 35 0 35 C0 23.45 0 11.9 0 0 Z M7 6 C7 9.3 7 12.6 7 16 C8.81242052 16.02687279 10.62495233 16.04633715 12.4375 16.0625 C13.95150391 16.07990234 13.95150391 16.07990234 15.49609375 16.09765625 C17.94021067 16.28612676 17.94021067 16.28612676 19 15 C19.16053815 13.12678052 19.16053815 13.12678052 19.125 11 C19.12757813 10.278125 19.13015625 9.55625 19.1328125 8.8125 C19.19695276 6.97910585 19.19695276 6.97910585 18 6 C16.14712498 5.92773498 14.29166122 5.9161878 12.4375 5.9375 C11.42558594 5.94652344 10.41367187 5.95554687 9.37109375 5.96484375 C8.58863281 5.97644531 7.80617188 5.98804687 7 6 Z " fill="#FDFDFD" transform="translate(280,119)"/>
<path d="M0 0 C1.13211914 0.00870117 1.13211914 0.00870117 2.28710938 0.01757812 C6.07727433 0.10106193 9.29079303 0.18756448 12.4375 2.4375 C14.6593078 6.8811156 13.66741938 12.93290825 13.6875 17.8125 C13.708125 19.05773437 13.72875 20.30296875 13.75 21.5859375 C13.75515625 22.7821875 13.7603125 23.9784375 13.765625 25.2109375 C13.7749707 26.30841309 13.78431641 27.40588867 13.79394531 28.53662109 C13.39104065 31.81560272 12.85172272 33.19429029 10.4375 35.4375 C8.30859375 35.92333984 8.30859375 35.92333984 5.875 35.8984375 C4.99585938 35.89457031 4.11671875 35.89070313 3.2109375 35.88671875 C2.29570312 35.86222656 1.38046875 35.83773437 0.4375 35.8125 C-0.93535156 35.81056641 -0.93535156 35.81056641 -2.3359375 35.80859375 C-9.14055488 35.71879675 -9.14055488 35.71879675 -12.5625 33.4375 C-14.2253755 28.4488735 -13.87278878 23.28646004 -13.9375 18.0625 C-13.97488281 16.92554688 -14.01226562 15.78859375 -14.05078125 14.6171875 C-14.13778078 6.38123174 -14.13778078 6.38123174 -11.57421875 2.17578125 C-7.55568016 -0.14360873 -4.55454612 -0.19938356 0 0 Z M-6.5625 7.4375 C-6.66133336 8.90228506 -6.69329289 10.37172958 -6.6953125 11.83984375 C-6.69660156 12.72994141 -6.69789063 13.62003906 -6.69921875 14.53710938 C-6.69535156 15.47361328 -6.69148437 16.41011719 -6.6875 17.375 C-6.69136719 18.30763672 -6.69523438 19.24027344 -6.69921875 20.20117188 C-6.69792969 21.09255859 -6.69664062 21.98394531 -6.6953125 22.90234375 C-6.69418457 23.723396 -6.69305664 24.54444824 -6.69189453 25.39038086 C-6.6918784 27.50366024 -6.6918784 27.50366024 -5.5625 29.4375 C-1.6025 29.4375 2.3575 29.4375 6.4375 29.4375 C6.46432987 25.79161831 6.48425569 22.14593154 6.5 18.5 C6.50837891 17.45908203 6.51675781 16.41816406 6.52539062 15.34570312 C6.52861328 14.35634766 6.53183594 13.36699219 6.53515625 12.34765625 C6.54039307 11.43121338 6.54562988 10.51477051 6.55102539 9.57055664 C6.67671211 7.45386977 6.67671211 7.45386977 5.4375 6.4375 C3.60634117 6.33898829 1.77130067 6.30777371 -0.0625 6.3125 C-1.56296875 6.30863281 -1.56296875 6.30863281 -3.09375 6.3046875 C-5.50649622 6.15879618 -5.50649622 6.15879618 -6.5625 7.4375 Z " fill="#FDFDFD" transform="translate(240.5625,118.5625)"/>
<path d="M0 0 C2.31 0 4.62 0 7 0 C7.33 9.24 7.66 18.48 8 28 C11.63 28.33 15.26 28.66 19 29 C19 19.43 19 9.86 19 0 C21.31 0 23.62 0 26 0 C27.70809621 5.12428862 27.22680315 10.51072927 27.25 15.875 C27.270625 17.05964844 27.29125 18.24429688 27.3125 19.46484375 C27.31765625 20.60824219 27.3228125 21.75164062 27.328125 22.9296875 C27.34214355 24.49565674 27.34214355 24.49565674 27.35644531 26.09326172 C26.91182864 29.71901936 25.60090708 32.39909292 23 35 C19.88272557 35.25017242 16.7511343 35.18522148 13.625 35.1875 C12.7484375 35.19974609 11.871875 35.21199219 10.96875 35.22460938 C10.12570313 35.22654297 9.28265625 35.22847656 8.4140625 35.23046875 C7.6401416 35.23457764 6.8662207 35.23868652 6.06884766 35.24291992 C4 35 4 35 1 33 C-0.15927528 29.52217417 -0.11313066 26.81196743 -0.09765625 23.14453125 C-0.0962413 22.48289474 -0.09482635 21.82125824 -0.09336853 21.13957214 C-0.08777996 19.03050172 -0.07522965 16.92153823 -0.0625 14.8125 C-0.05748352 13.38086091 -0.05292087 11.94922015 -0.04882812 10.51757812 C-0.0378143 7.01168412 -0.02055755 3.5058525 0 0 Z " fill="#FDFDFD" transform="translate(159,119)"/>
<path d="M0 0 C1.37478516 0.01740234 1.37478516 0.01740234 2.77734375 0.03515625 C3.69644531 0.04417969 4.61554688 0.05320312 5.5625 0.0625 C6.27277344 0.07410156 6.98304688 0.08570312 7.71484375 0.09765625 C10.28812991 6.8109296 12.6190468 13.59329681 14.90234375 20.41015625 C15.27037109 21.49361328 15.63839844 22.57707031 16.01757812 23.69335938 C16.36498047 24.73041016 16.71238281 25.76746094 17.0703125 26.8359375 C17.38637451 27.77477783 17.70243652 28.71361816 18.02807617 29.6809082 C18.71484375 32.09765625 18.71484375 32.09765625 18.71484375 35.09765625 C16.07484375 35.09765625 13.43484375 35.09765625 10.71484375 35.09765625 C10.05484375 32.45765625 9.39484375 29.81765625 8.71484375 27.09765625 C4.42484375 27.09765625 0.13484375 27.09765625 -4.28515625 27.09765625 C-4.50171875 28.79921875 -4.50171875 28.79921875 -4.72265625 30.53515625 C-5.28515625 34.09765625 -5.28515625 34.09765625 -6.28515625 35.09765625 C-8.61813058 35.13858562 -10.9522085 35.14007348 -13.28515625 35.09765625 C-11.76508063 27.58482178 -9.58314148 20.3860239 -7.22265625 13.09765625 C-6.85849609 11.95425781 -6.49433594 10.81085938 -6.11914062 9.6328125 C-3.06293519 0.13089467 -3.06293519 0.13089467 0 0 Z M1.71484375 7.09765625 C0.39484375 11.71765625 -0.92515625 16.33765625 -2.28515625 21.09765625 C0.68484375 21.09765625 3.65484375 21.09765625 6.71484375 21.09765625 C6.40356859 19.51408166 6.09077086 17.93080632 5.77734375 16.34765625 C5.60332031 15.4659375 5.42929688 14.58421875 5.25 13.67578125 C4.79115887 11.46530572 4.28148301 9.28253557 3.71484375 7.09765625 C3.05484375 7.09765625 2.39484375 7.09765625 1.71484375 7.09765625 Z " fill="#FDFDFD" transform="translate(132.28515625,118.90234375)"/>
<path d="M0 0 C3.63 0 7.26 0 11 0 C12.57247211 4.50032696 14.13888352 9.00269981 15.69970703 13.50708008 C16.23157201 15.03923413 16.76509085 16.5708151 17.30029297 18.10180664 C18.06913435 20.30206236 18.83201147 22.50430801 19.59375 24.70703125 C19.83436157 25.39150833 20.07497314 26.07598541 20.32287598 26.78120422 C21.31225239 29.65837218 22 31.93309937 22 35 C19.36 35 16.72 35 14 35 C13.34 32.69 12.68 30.38 12 28 C7.71 27.67 3.42 27.34 -1 27 C-1.33 28.98 -1.66 30.96 -2 33 C-2.33 33.66 -2.66 34.32 -3 35 C-5.32156597 35.40729228 -7.6568787 35.74438677 -10 36 C-9.4092307 31.12411145 -8.41082309 26.65401685 -6.93359375 21.97265625 C-6.73524429 21.33887558 -6.53689484 20.70509491 -6.33253479 20.05210876 C-5.70591823 18.05393813 -5.07185639 16.05822526 -4.4375 14.0625 C-4.00796626 12.697422 -3.57892522 11.33218886 -3.15039062 9.96679688 C-2.10594441 6.64272049 -1.05481346 3.32080321 0 0 Z M5 6 C4.3299166 8.12392506 3.66403203 10.24917524 3 12.375 C2.62875 13.55835938 2.2575 14.74171875 1.875 15.9609375 C0.90777394 18.79323439 0.90777394 18.79323439 1 21 C3.97 21 6.94 21 10 21 C8.64774477 13.31363974 8.64774477 13.31363974 6 6 C5.67 6 5.34 6 5 6 Z " fill="#FDFDFD" transform="translate(391,119)"/>
<path d="M0 0 C3.5475 -0.061875 7.095 -0.12375 10.75 -0.1875 C11.86213867 -0.21481201 12.97427734 -0.24212402 14.12011719 -0.27026367 C15.4451123 -0.28150269 15.4451123 -0.28150269 16.796875 -0.29296875 C17.69760742 -0.3086792 18.59833984 -0.32438965 19.52636719 -0.34057617 C22.51401407 0.07077079 23.83915473 0.9238759 26 3 C26.99963315 5.99889946 27.23071314 8.23266286 27.3125 11.375 C27.34988281 12.31085938 27.38726562 13.24671875 27.42578125 14.2109375 C26.85346235 17.95988885 25.82906996 19.47580605 23 22 C20.22539454 22.53425914 18.02201654 22.78891952 15.25 22.8125 C14.55261719 22.83763672 13.85523438 22.86277344 13.13671875 22.88867188 C11.42508051 22.94728962 9.7124814 22.97657053 8 23 C8 26.96 8 30.92 8 35 C5.36 35 2.72 35 0 35 C0 23.45 0 11.9 0 0 Z M7 6 C7 9.3 7 12.6 7 16 C8.60875 16.185625 10.2175 16.37125 11.875 16.5625 C12.77992188 16.66691406 13.68484375 16.77132812 14.6171875 16.87890625 C17.01653057 17.19674852 17.01653057 17.19674852 19 16 C19 12.7 19 9.4 19 6 C15.04 6 11.08 6 7 6 Z " fill="#FDFDFD" transform="translate(350,119)"/>
<path d="M0 0 C7.59 0 15.18 0 23 0 C23.33 1.65 23.66 3.3 24 5 C23 6 23 6 19.40234375 6.09765625 C17.91403133 6.0909822 16.42573568 6.07902183 14.9375 6.0625 C14.17888672 6.05798828 13.42027344 6.05347656 12.63867188 6.04882812 C10.75908129 6.0370068 8.87953101 6.01907078 7 6 C7 8.64 7 11.28 7 14 C11.29 14 15.58 14 20 14 C20 15.98 20 17.96 20 20 C15.71 20 11.42 20 7 20 C7 22.97 7 25.94 7 29 C8.14339844 28.98839844 9.28679687 28.97679687 10.46484375 28.96484375 C11.95572754 28.95546712 13.44661309 28.94636679 14.9375 28.9375 C15.69224609 28.92912109 16.44699219 28.92074219 17.22460938 28.91210938 C19.14994313 28.90347559 21.07535581 28.94775667 23 29 C24 30 24 30 24 35 C16.08 35 8.16 35 0 35 C0 23.45 0 11.9 0 0 Z " fill="#FDFDFD" transform="translate(317,119)"/>
<path d="M0 0 C1.084021 0.00523682 2.16804199 0.01047363 3.28491211 0.01586914 C5.03964844 0.02070312 5.03964844 0.02070312 6.82983398 0.02563477 C8.67738281 0.03820312 8.67738281 0.03820312 10.56225586 0.05102539 C12.41560547 0.05779297 12.41560547 0.05779297 14.30639648 0.06469727 C17.37089703 0.07652931 20.43530307 0.09301366 23.49975586 0.11352539 C23.49975586 2.09352539 23.49975586 4.07352539 23.49975586 6.11352539 C20.19975586 6.11352539 16.89975586 6.11352539 13.49975586 6.11352539 C13.49975586 15.68352539 13.49975586 25.25352539 13.49975586 35.11352539 C11.18975586 35.11352539 8.87975586 35.11352539 6.49975586 35.11352539 C6.49975586 25.54352539 6.49975586 15.97352539 6.49975586 6.11352539 C3.19975586 6.11352539 -0.10024414 6.11352539 -3.50024414 6.11352539 C-3.50024414 0.15893111 -3.50024414 0.15893111 0 0 Z " fill="#FDFDFD" transform="translate(196.500244140625,118.886474609375)"/>
<path d="M0 0 C2.31 0 4.62 0 7 0 C7 11.55 7 23.1 7 35 C4.69 35 2.38 35 0 35 C0 23.45 0 11.9 0 0 Z " fill="#FDFDFD" transform="translate(422,119)"/>
<path d="M0 0 C3.96 0 7.92 0 12 0 C12.75344756 16.07354785 12.75344756 16.07354785 8 23 C5 25 5 25 2 25 C2.144375 24.29875 2.28875 23.5975 2.4375 22.875 C3.01478375 19.92443859 3.51695141 16.96729849 4 14 C2.68 13.67 1.36 13.34 0 13 C0 8.71 0 4.42 0 0 Z " fill="#FDFDFD" transform="translate(498,20)"/>
</svg>
