<?xml version="1.0" encoding="UTF-8"?>
<svg version="1.1" xmlns="http://www.w3.org/2000/svg" width="512" height="512">
<path d="M0 0 C1.2395192 -0.00287018 2.47903839 -0.00574036 3.75611877 -0.00869751 C7.0462536 -0.01125518 10.33595966 0.00075369 13.6260376 0.01757812 C16.92066995 0.02721654 20.21517303 0.00428139 23.50976562 -0.01171875 C44.94861525 -0.03048472 64.50790174 0.29280008 80.90625 15.9375 C83.91256002 19.17506464 86.42528947 22.6251577 88.9375 26.25390625 C91.66434166 30.05825207 94.59495251 33.65899752 97.56640625 37.2734375 C102.37556836 43.13813491 107.05248178 49.07470509 111.65234375 55.10546875 C114.97238178 59.43681304 118.39533714 63.68587866 121.81860352 67.93579102 C122.28580811 68.51643311 122.7530127 69.0970752 123.234375 69.6953125 C123.72373535 70.28417236 124.2130957 70.87303223 124.71728516 71.47973633 C126.19140625 73.3984375 126.19140625 73.3984375 127.50537109 75.66674805 C132.83127293 84.18412541 141.29318092 85.47142031 150.44140625 87.7109375 C152.77345226 88.31368543 155.1028978 88.92582768 157.43235779 89.53848267 C158.93776298 89.93440222 160.44383052 90.32781261 161.95057678 90.71859741 C179.03308385 95.18786702 179.03308385 95.18786702 184.0703125 101.2265625 C188.0196297 108.87750452 187.4829559 117.26529002 187.45703125 125.64453125 C187.45838152 127.02401294 187.46032505 128.40349417 187.46282959 129.78297424 C187.46576484 132.66338669 187.46153572 135.54367441 187.45214844 138.42407227 C187.44076556 142.09322026 187.44731605 145.7620752 187.45929337 149.43121243 C187.46656461 152.27702491 187.46419986 155.12276939 187.45903778 157.96858406 C187.45707782 159.97193215 187.46309155 161.97528301 187.46929932 163.97862244 C187.37845676 181.77164692 187.37845676 181.77164692 181.72180176 188.90704346 C177.15389832 193.35853586 171.72724538 194.85410191 165.49133301 194.85162354 C164.70141968 194.83097839 163.91150635 194.81033325 163.09765625 194.7890625 C162.26552612 194.78340271 161.433396 194.77774292 160.5760498 194.77191162 C157.94722215 194.74971934 155.31981408 194.69955883 152.69140625 194.6484375 C150.89715526 194.62835018 149.10288266 194.61010334 147.30859375 194.59375 C142.93566023 194.54991133 138.56377297 194.48100689 134.19140625 194.3984375 C134.01399902 192.99343994 134.01399902 192.99343994 133.83300781 191.56005859 C133.66768555 190.31820801 133.50236328 189.07635742 133.33203125 187.796875 C133.17250977 186.57145996 133.01298828 185.34604492 132.84863281 184.08349609 C131.35485645 175.70791644 127.85668535 168.52821786 122.42578125 162.01953125 C121.19140625 160.3984375 121.19140625 160.3984375 120.19140625 157.3984375 C118.88425352 156.68179675 117.54505166 156.02283028 116.19140625 155.3984375 C114.68096425 154.28749647 113.18181372 153.16111521 111.69140625 152.0234375 C101.22238491 144.58981288 87.94454668 141.843207 75.30078125 143.859375 C60.60418194 147.12956071 49.02826382 154.06745424 40.81640625 166.7734375 C36.55967833 174.10446891 34.60219729 180.92636991 33.12109375 189.203125 C32.8578833 190.66854736 32.8578833 190.66854736 32.58935547 192.16357422 C32.45803223 192.9010791 32.32670898 193.63858398 32.19140625 194.3984375 C20.34375452 194.42155952 8.49610811 194.43935187 -3.35156155 194.45024967 C-8.85230237 194.45547881 -14.3530278 194.46257701 -19.85375977 194.47387695 C-25.15755935 194.48470475 -30.4613441 194.4907141 -35.76515388 194.49331474 C-37.79344987 194.49516919 -39.82174501 194.49879017 -41.85003471 194.50416756 C-44.68055889 194.51137656 -47.51102093 194.5124285 -50.34155273 194.51196289 C-51.18887466 194.51555817 -52.03619659 194.51915344 -52.90919495 194.52285767 C-58.69454159 194.51248966 -58.69454159 194.51248966 -59.80859375 193.3984375 C-60.08444941 191.46444942 -60.3284679 189.52589841 -60.55859375 187.5859375 C-62.5695861 174.2521839 -68.46998032 161.90851733 -79.40209961 153.63354492 C-90.08407154 146.07193679 -102.69736282 142.17518205 -115.80859375 143.3984375 C-125.08404402 145.1456967 -133.11728746 147.80220367 -140.80859375 153.3984375 C-141.44152344 153.84960938 -142.07445312 154.30078125 -142.7265625 154.765625 C-153.1733473 162.92933762 -157.99560823 174.57538268 -160.41796875 187.23046875 C-160.55315918 187.92192993 -160.68834961 188.61339111 -160.82763672 189.32580566 C-161.15766243 191.01609222 -161.48355308 192.70718525 -161.80859375 194.3984375 C-166.82565096 194.47285756 -171.84238347 194.52716658 -176.85986328 194.56323242 C-178.56499838 194.57827488 -180.27009507 194.59871403 -181.97509766 194.62475586 C-184.43271387 194.66134034 -186.88981644 194.67820923 -189.34765625 194.69140625 C-190.10414459 194.70689011 -190.86063293 194.72237396 -191.64004517 194.73832703 C-196.42854828 194.73983341 -199.64683632 194.01712881 -203.80859375 191.3984375 C-207.7977871 186.30877702 -207.92824196 180.58733237 -207.96972656 174.32055664 C-207.97933411 173.14235855 -207.98894165 171.96416046 -207.99884033 170.7502594 C-208.00309021 169.49075974 -208.00734009 168.23126007 -208.01171875 166.93359375 C-208.01741882 165.62692245 -208.0231189 164.32025116 -208.0289917 162.97398376 C-208.0394599 160.21450414 -208.04533041 157.45505329 -208.04882812 154.69555664 C-208.05431633 151.17405873 -208.07836854 147.65294674 -208.10680008 144.13156986 C-208.12998631 140.75308568 -208.13187898 137.37465331 -208.13671875 133.99609375 C-208.14906555 132.73861832 -208.16141235 131.48114288 -208.1741333 130.18556213 C-208.15807223 123.86329423 -208.1029049 118.89039338 -204.80859375 113.3984375 C-195.93052753 106.78340776 -184.6730918 108.24304092 -174.0769043 108.22485352 C-172.48455121 108.21854017 -170.89219986 108.21177351 -169.29985046 108.20458984 C-165.88414057 108.18998062 -162.46843721 108.17823201 -159.05270958 108.16864204 C-153.65341911 108.15313707 -148.25418627 108.12919191 -142.85493469 108.10374451 C-127.50643552 108.03266849 -112.15790483 107.97262898 -96.80932617 107.92163086 C-88.3224557 107.89335776 -79.83564408 107.85800311 -71.34883529 107.81497711 C-65.97901303 107.78818049 -60.60925721 107.77029137 -55.23938119 107.75893986 C-51.90574574 107.74983296 -48.57219157 107.73248187 -45.23860359 107.71276093 C-43.69020231 107.70527083 -42.14178023 107.70120349 -40.5933609 107.70076561 C-38.48396862 107.69968711 -36.37499225 107.68647667 -34.26567078 107.67018127 C-33.084183 107.66594934 -31.90269522 107.6617174 -30.68540478 107.65735722 C-27.61064217 107.61160686 -27.61064217 107.61160686 -24.80859375 105.3984375 C-23.48779274 101.43603446 -23.65588432 97.63972422 -23.65087891 93.50830078 C-23.64579819 92.59905853 -23.64071747 91.68981628 -23.63548279 90.75302124 C-23.62477811 88.77724294 -23.61615831 86.80145251 -23.60936356 84.82565689 C-23.59758077 81.69871926 -23.5781298 78.57192013 -23.5562439 75.44503784 C-23.49460421 66.55406292 -23.44056226 57.66310231 -23.40722656 48.77197266 C-23.38629121 43.33488838 -23.35099754 37.89805678 -23.30646896 32.46111679 C-23.29230041 30.38871101 -23.2835846 28.31626053 -23.28041458 26.24380875 C-23.27551047 23.34472428 -23.25236535 20.44631146 -23.22509766 17.54736328 C-23.22960686 16.26294342 -23.22960686 16.26294342 -23.23420715 14.95257568 C-23.16907684 10.29388116 -22.86042184 7.16141024 -19.80859375 3.3984375 C-13.5774517 -0.45986458 -7.15623408 -0.03675506 0 0 Z M10.48628235 31.64620972 C8.85685741 33.85114936 8.80077162 35.09602946 8.77148438 37.82226562 C8.75557251 38.71328979 8.73966064 39.60431396 8.7232666 40.52233887 C8.72306519 41.48176392 8.72286377 42.44118896 8.72265625 43.4296875 C8.71504272 44.41714966 8.7074292 45.40461182 8.69958496 46.42199707 C8.68877834 48.50998403 8.68593313 50.59802507 8.69042969 52.68603516 C8.69140267 55.8866546 8.64977341 59.08488273 8.60546875 62.28515625 C8.60026244 64.31249499 8.59757355 66.33984208 8.59765625 68.3671875 C8.58126099 69.32661255 8.56486572 70.2860376 8.54797363 71.27453613 C8.55727905 72.1655603 8.56658447 73.05658447 8.57617188 73.97460938 C8.57411743 74.75831909 8.57206299 75.54202881 8.56994629 76.3494873 C9.05053611 78.59829671 9.05053611 78.59829671 11.24984741 80.1516571 C14.85597515 81.68011518 18.02394944 81.81237021 21.87158203 81.77075195 C22.62827179 81.77440262 23.38496155 81.77805328 24.1645813 81.78181458 C26.65552495 81.78989386 29.14581284 81.77633472 31.63671875 81.76171875 C33.37116495 81.76119993 35.10561175 81.76171847 36.84005737 81.76322937 C40.46979585 81.76313977 44.09931164 81.75273361 47.72900391 81.73461914 C52.38418447 81.71189852 57.03904076 81.71139529 61.69426155 81.71813679 C65.27329396 81.72147551 68.85225224 81.71484906 72.4312706 81.70500755 C74.14809659 81.70115614 75.86493083 81.70000709 77.58176041 81.7015934 C79.97800719 81.70196368 82.37383553 81.68935563 84.77001953 81.6730957 C85.48073608 81.67557312 86.19145264 81.67805054 86.92370605 81.68060303 C90.57208088 81.64103176 92.06664733 81.48161011 95.19140625 79.3984375 C94.93970377 72.81222253 92.65869525 70.00256694 88.06640625 65.4609375 C86.8703539 64.22858221 85.6750346 62.99551501 84.48046875 61.76171875 C83.9071582 61.1785791 83.33384766 60.59543945 82.74316406 59.99462891 C80.90510731 58.10394058 79.15998626 56.14801756 77.44140625 54.1484375 C73.42387305 49.50440778 69.33342896 44.93177429 65.19140625 40.3984375 C64.58167969 39.71007812 63.97195313 39.02171875 63.34375 38.3125 C62.77785156 37.70148438 62.21195312 37.09046875 61.62890625 36.4609375 C61.15324219 35.93628906 60.67757812 35.41164063 60.1875 34.87109375 C54.38880307 30.59299445 48.15406033 29.94591829 41.203125 30 C40.37810989 29.99712982 39.55309479 29.99425964 38.70307922 29.99130249 C36.97449042 29.98927523 35.24587796 29.99471065 33.51733398 30.00732422 C30.86846236 30.02350128 28.2210926 30.00737807 25.57226562 29.98828125 C23.88671539 29.99026191 22.20116608 29.9941019 20.515625 30 C19.72500168 29.99392731 18.93437836 29.98785461 18.11979675 29.9815979 C14.05344884 29.94998581 14.05344884 29.94998581 10.48628235 31.64620972 Z M144.19140625 120.3984375 C142.58839072 123.60446857 142.84540901 126.91235212 143.19140625 130.3984375 C144.9998367 135.71735059 148.30358192 139.64433648 153.19140625 142.3984375 C156.37195122 143.16634305 159.01816745 143.21254558 162.19140625 142.3984375 C164.94710072 140.21684605 166.62729372 138.52666256 168.19140625 135.3984375 C168.62222773 128.93611537 168.08872256 124.8218248 163.75 119.6953125 C160.58480808 116.55215208 158.07815336 114.97412275 153.56640625 114.7109375 C149.01382837 115.01392476 146.96746064 116.75486611 144.19140625 120.3984375 Z " fill="#ff8a1e" transform="translate(295.80859375,162.6015625)"/>
<path d="M0 0 C2.04778791 -0.00963438 4.09454041 -0.04063561 6.14208984 -0.07226562 C17.01519428 -0.11503103 24.65797481 1.03938917 33.01318359 8.11523438 C33.5983374 8.59210693 34.18349121 9.06897949 34.78637695 9.56030273 C36.03577956 10.58041484 37.28056956 11.60619898 38.52099609 12.63720703 C41.15743527 14.82734615 43.81767319 16.98764647 46.4777832 19.14892578 C47.83922745 20.25512985 49.19940969 21.36288885 50.55834961 22.47216797 C54.63964883 25.79774407 58.76456033 29.0476039 62.95068359 32.24023438 C68.53904973 36.50231337 73.99696872 40.90662736 79.43896484 45.35351562 C84.29364586 49.31538174 89.1931897 53.21268216 94.14379883 57.05395508 C97.37248272 59.56944814 100.540622 62.14024935 103.66943359 64.77929688 C104.38228516 65.37548828 105.09513672 65.97167969 105.82958984 66.5859375 C107.21025476 67.74411958 108.58313469 68.91166717 109.94677734 70.08984375 C113.70310417 73.22779775 116.36810742 75.11456628 121.45068359 75.24023438 C123.12463219 74.94564145 124.79131052 74.60816085 126.45068359 74.24023438 C142.5485068 73.21735186 155.81556802 75.93488492 168.78662109 86.06445312 C173.61044901 90.38614196 176.89333167 95.18780953 179.88818359 100.86523438 C180.21834473 101.46706543 180.54850586 102.06889648 180.88867188 102.68896484 C184.43421633 109.91920385 184.29143706 115.54588536 185.45068359 124.24023438 C152.12068359 124.24023438 118.79068359 124.24023438 84.45068359 124.24023438 C84.78068359 119.62023437 85.11068359 115.00023437 85.45068359 110.24023438 C83.50786844 107.20629592 82.70878819 106.22190737 79.95068359 104.30273438 C78.74510953 103.3360398 77.54344795 102.36445088 76.34521484 101.38867188 C75.70922363 100.88819336 75.07323242 100.38771484 74.41796875 99.87207031 C70.91879442 96.96955341 67.8046197 93.68387008 64.63818359 90.42773438 C61.04403515 86.75256234 57.43077028 83.17671794 53.53271484 79.82226562 C48.34398505 75.3451617 43.60509733 70.44299809 38.80615234 65.55664062 C34.8181354 61.52487944 30.74001591 57.70648424 26.44189453 54.00878906 C22.91064894 50.87240565 19.63201747 47.4852741 16.32568359 44.11523438 C13.72466435 41.46467191 11.10190116 38.84054856 8.45068359 36.24023438 C7.95213867 35.72235352 7.45359375 35.20447266 6.93994141 34.67089844 C2.36828812 30.28802643 0.711954 31.0470422 -6.54931641 30.24023438 C-6.54931641 48.72023438 -6.54931641 67.20023438 -6.54931641 86.24023438 C-5.22931641 86.90023437 -3.90931641 87.56023437 -2.54931641 88.24023438 C0.82176852 92.09290286 0.94609608 95.88848805 0.82177734 100.80273438 C0.29137885 104.28661499 -1.41207951 106.5018996 -3.54931641 109.24023438 C-3.54931641 110.23023438 -3.54931641 111.22023438 -3.54931641 112.24023438 C-1.88716373 113.5791907 -0.21968033 114.9115358 1.45068359 116.24023438 C6.12199869 122.11274479 7.78935066 127.86679718 7.32568359 135.24023438 C6.29240518 142.89588807 3.34180912 148.2961346 -2.77197266 153.05273438 C-8.17754153 156.66436721 -14.23448311 157.12245373 -20.54931641 156.24023438 C-26.86638883 154.24292471 -31.72414273 151.09638928 -35.42431641 145.55664062 C-37.8711846 140.51847105 -39.41763898 134.89385809 -37.64306641 129.47070312 C-36.54931641 127.24023438 -36.54931641 127.24023438 -35.54931641 126.24023438 C-28.20185719 125.76620475 -28.20185719 125.76620475 -25.85009766 127.47460938 C-24.28669498 129.5967055 -23.99662896 131.14599246 -23.61181641 133.74023438 C-22.89519302 137.33128772 -22.89519302 137.33128772 -20.79931641 140.30273438 C-17.73020243 141.58153186 -15.84732746 141.77868516 -12.54931641 141.24023438 C-9.42572811 139.45036484 -9.42572811 139.45036484 -7.54931641 136.24023438 C-6.95766696 132.92951513 -7.32545694 130.36554073 -8.54931641 127.24023438 C-10.37810496 125.0313281 -12.35275606 123.1925102 -14.49072266 121.28320312 C-17.20289586 118.59161568 -18.6737491 115.66169066 -20.38916016 112.28320312 C-21.99122409 109.46206024 -24.20497729 107.45433242 -26.54931641 105.24023438 C-28.01087986 100.85554403 -28.46704694 96.57544969 -26.76025391 92.23242188 C-25.01957325 89.05667625 -23.5842324 87.26351171 -20.54931641 85.24023438 C-20.25405512 82.6942889 -20.15323992 80.38863494 -20.18041992 77.84057617 C-20.17665344 77.07778351 -20.17288696 76.31499084 -20.16900635 75.52908325 C-20.16256205 73.86977557 -20.16291498 72.21043099 -20.16919136 70.55112267 C-20.17827626 67.92395148 -20.16810718 65.29749796 -20.15257263 62.67036438 C-20.11240511 55.2002581 -20.11126853 47.73020602 -20.11352539 40.26000977 C-20.11357651 35.69288365 -20.09439679 31.12614267 -20.06419182 26.55912209 C-20.05336132 23.97256785 -20.06550201 21.38674744 -20.07801819 18.80021667 C-20.06911229 17.20949581 -20.05903739 15.61878091 -20.04760742 14.02807617 C-20.05735092 13.3104863 -20.06709442 12.59289642 -20.07713318 11.8535614 C-20.02636956 8.30918273 -19.61293745 6.34114502 -17.70567322 3.31599426 C-12.95249282 -1.25952921 -6.20145709 0.0176303 0 0 Z " fill="#ff8a1e" transform="translate(67.54931640625,134.759765625)"/>
<path d="M0 0 C10.5575552 6.67449576 17.75918761 15.42866009 20.64453125 27.671875 C21.77690432 40.47032414 19.9814912 50.96038477 12.40234375 61.60546875 C6.05925732 69.06211924 -2.67858662 74.14318721 -12.35546875 75.671875 C-24.98780686 76.5327945 -35.1051301 74.28197491 -45.35546875 66.671875 C-52.74429853 59.98742783 -57.95337437 50.95377579 -58.59375 40.94921875 C-58.95056639 27.0221286 -56.26938231 17.17134718 -46.61328125 6.80078125 C-34.48153394 -4.90308285 -15.11600525 -7.52629072 0 0 Z M-30.71875 27.4375 C-33.09096625 31.5786885 -33.93889307 35.06873527 -33.0390625 39.78125 C-31.42085975 44.25673645 -28.26844736 47.0632226 -24.35546875 49.671875 C-19.7577432 51.06188505 -16.56661366 50.57632743 -12.25390625 48.7421875 C-8.49396949 46.62238776 -6.1274269 43.86514434 -4.69140625 39.78515625 C-3.74834485 35.07909497 -4.62263373 31.5740406 -6.9921875 27.4375 C-10.12023963 23.38626916 -13.79047125 21.89544607 -18.85546875 21.171875 C-23.92046625 21.89544607 -27.59069787 23.38626916 -30.71875 27.4375 Z " fill="#ff8a1e" transform="translate(204.35546875,320.328125)"/>
<path d="M0 0 C9.9146324 6.28804119 17.08261293 14.35764169 20.140625 25.78125 C22.31999349 38.22041478 20.44003688 48.70939492 13.9609375 59.4296875 C8.26501571 67.42973845 -0.21366996 72.92158589 -9.73046875 75.265625 C-22.0097965 77.20542938 -32.6115878 75.04936964 -43.03125 68.40234375 C-50.55148986 62.81913537 -56.71184611 54.03766488 -58.3515625 44.6796875 C-59.16980917 31.89625997 -58.50912344 20.83216835 -50.03125 10.51953125 C-37.24033965 -3.49097753 -17.58737897 -8.71979293 0 0 Z M-30.3515625 26.6796875 C-32.96944216 30.17019372 -33.58793013 32.85018608 -33.4140625 37.1171875 C-32.60705873 42.19959419 -30.4162776 45.54959236 -26.3515625 48.6796875 C-22.18877874 50.83403538 -18.62399161 51.07394029 -14.1640625 49.6796875 C-9.93759003 47.78276679 -7.83370109 45.59093618 -5.3515625 41.6796875 C-3.72070044 36.07359916 -4.57540048 32.75336292 -7.3515625 27.6796875 C-10.70588434 23.67614208 -13.42971099 21.93839828 -18.6015625 21.2421875 C-23.50137486 21.81383228 -26.61561389 23.50623003 -30.3515625 26.6796875 Z " fill="#ff8a1e" transform="translate(398.3515625,320.3203125)"/>
<path d="M0 0 C3.63910362 3.04669141 6.17621884 5.71615652 7.6875 10.25 C7.970816 14.24534184 7.96499765 18.24573151 8 22.25 C8.02900391 23.35601562 8.05800781 24.46203125 8.08789062 25.6015625 C8.09626953 26.66117188 8.10464844 27.72078125 8.11328125 28.8125 C8.12786377 29.78316406 8.14244629 30.75382812 8.1574707 31.75390625 C7.6875 34.25 7.6875 34.25 6.07519531 36.06494141 C2.93863157 37.62167765 0.5565656 37.63836311 -2.94140625 37.6484375 C-4.86436523 37.65423828 -4.86436523 37.65423828 -6.82617188 37.66015625 C-7.49060303 37.65387207 -8.15503418 37.64758789 -8.83959961 37.64111328 C-10.87226223 37.62502167 -12.90294501 37.64099235 -14.93554688 37.66015625 C-16.21623047 37.65628906 -17.49691406 37.65242188 -18.81640625 37.6484375 C-19.99017822 37.64505371 -21.1639502 37.64166992 -22.37329102 37.63818359 C-25.3125 37.25 -25.3125 37.25 -27.15600586 35.91259766 C-31.39839478 29.81365982 -29.92929906 18.4657367 -28.88671875 11.33984375 C-27.31813913 5.72952522 -24.24783089 2.28082561 -19.3125 -0.75 C-12.64572017 -3.58955437 -6.3654513 -3.36287993 0 0 Z " fill="#ff8a1e" transform="translate(324.3125,117.75)"/>
</svg>
